Arimo-BoldItalic.ufo
<glyph name="quotesingle" format="2">
	<unicode hex="0027"/>
	<advance width="487"/>
	<outline>
		<contour>
			<point x="543" y="1409" type="line"/>
			<point x="271" y="1409" type="line"/>
			<point x="198" y="898" type="line"/>
			<point x="417" y="898" type="line"/>
		</contour>
	</outline>
	<note>
quotesingle
</note>
</glyph>
<glyph name="slash" format="2">
	<unicode hex="002F"/>
	<advance width="569"/>
	<outline>
		<contour>
			<point x="749" y="1484" type="line"/>
			<point x="511" y="1484" type="line"/>
			<point x="-76" y="-41" type="line"/>
			<point x="166" y="-41" type="line"/>
		</contour>
	</outline>
	<note>
slash
</note>
</glyph>
<glyph name="colon" format="2">
	<unicode hex="003A"/>
	<advance width="682"/>
	<outline>
		<contour>
			<point x="578" y="1034" type="line"/>
			<point x="290" y="1034" type="line"/>
			<point x="235" y="752" type="line"/>
			<point x="523" y="752" type="line"/>
		</contour>
		<contour>
			<point x="432" y="281" type="line"/>
			<point x="144" y="281" type="line"/>
			<point x="89" y="0" type="line"/>
			<point x="377" y="0" type="line"/>
		</contour>
	</outline>
	<note>
colon
</note>
</glyph>
<glyph name="less" format="2">
	<unicode hex="003C"/>
	<advance width="1196"/>
	<outline>
		<contour>
			<point x="1151" y="352" type="line"/>
			<point x="318" y="676" type="line"/>
			<point x="1151" y="1001" type="line"/>
			<point x="1151" y="1229" type="line"/>
			<point x="124" y="838" type="line"/>
			<point x="124" y="516" type="line"/>
			<point x="1151" y="125" type="line"/>
		</contour>
	</outline>
	<note>
less
</note>
</glyph>
<glyph name="I" format="2">
	<unicode hex="0049"/>
	<advance width="569"/>
	<outline>
		<contour>
			<point x="604" y="1409" type="line"/>
			<point x="309" y="1409" type="line"/>
			<point x="36" y="0" type="line"/>
			<point x="330" y="0" type="line"/>
		</contour>
	</outline>
	<note>
I
</note>
</glyph>
<glyph name="L" format="2">
	<unicode hex="004C"/>
	<advance width="1251"/>
	<outline>
		<contour>
			<point x="1131" y="228" type="line"/>
			<point x="375" y="228" type="line"/>
			<point x="604" y="1409" type="line"/>
			<point x="309" y="1409" type="line"/>
			<point x="36" y="0" type="line"/>
			<point x="1086" y="0" type="line"/>
		</contour>
	</outline>
	<note>
L
</note>
</glyph>
<glyph name="backslash" format="2">
	<unicode hex="005C"/>
	<advance width="569"/>
	<outline>
		<contour>
			<point x="349" y="1485" type="line"/>
			<point x="111" y="1485" type="line"/>
			<point x="289" y="-41" type="line"/>
			<point x="532" y="-41" type="line"/>
		</contour>
	</outline>
	<note>
backslash
</note>
</glyph>
<glyph name="bracketright" format="2">
	<unicode hex="005D"/>
	<advance width="682"/>
	<outline>
		<contour>
			<point x="738" y="1484" type="line"/>
			<point x="196" y="1484" type="line"/>
			<point x="159" y="1294" type="line"/>
			<point x="437" y="1294" type="line"/>
			<point x="140" y="-234" type="line"/>
			<point x="-137" y="-234" type="line"/>
			<point x="-174" y="-425" type="line"/>
			<point x="367" y="-425" type="line"/>
		</contour>
	</outline>
	<note>
bracketright
</note>
</glyph>
<glyph name="underscore" format="2">
	<unicode hex="005F"/>
	<advance width="1139"/>
	<outline>
		<contour>
			<point x="1057" y="-172" type="line"/>
			<point x="-120" y="-172" type="line"/>
			<point x="-120" y="-250" type="line"/>
			<point x="1057" y="-250" type="line"/>
		</contour>
	</outline>
	<note>
underscore
</note>
</glyph>
<glyph name="grave" format="2">
	<unicode hex="0060"/>
	<advance width="682"/>
	<outline>
		<contour>
			<point x="750" y="1214" type="line"/>
			<point x="555" y="1502" type="line"/>
			<point x="297" y="1502" type="line"/>
			<point x="289" y="1459" type="line"/>
			<point x="596" y="1183" type="line"/>
			<point x="744" y="1183" type="line"/>
		</contour>
	</outline>
	<note>
grave
</note>
</glyph>
<glyph name="bar" format="2">
	<unicode hex="007C"/>
	<advance width="573"/>
	<outline>
		<contour>
			<point x="453" y="1484" type="line"/>
			<point x="191" y="1484" type="line"/>
			<point x="191" y="-425" type="line"/>
			<point x="453" y="-425" type="line"/>
		</contour>
	</outline>
	<note>
bar
</note>
</glyph>
<glyph name="logicalnot" format="2">
	<unicode hex="00AC"/>
	<advance width="1196"/>
	<outline>
		<contour>
			<point x="1102" y="793" type="line"/>
			<point x="75" y="793" type="line"/>
			<point x="75" y="569" type="line"/>
			<point x="878" y="569" type="line"/>
			<point x="878" y="141" type="line"/>
			<point x="1102" y="141" type="line"/>
		</contour>
	</outline>
	<note>
logicalnot
</note>
</glyph>
<glyph name="acute" format="2">
	<unicode hex="00B4"/>
	<advance width="682"/>
	<outline>
		<contour>
			<point x="777" y="1459" type="line"/>
			<point x="785" y="1502" type="line"/>
			<point x="508" y="1502" type="line"/>
			<point x="261" y="1214" type="line"/>
			<point x="255" y="1183" type="line"/>
			<point x="401" y="1183" type="line"/>
		</contour>
	</outline>
	<note>
acute
</note>
</glyph>
<glyph name="middot" format="2">
	<unicode hex="00B7"/>
	<advance width="682"/>
	<outline>
		<contour>
			<point x="536" y="836" type="line"/>
			<point x="248" y="836" type="line"/>
			<point x="189" y="531" type="line"/>
			<point x="477" y="531" type="line"/>
		</contour>
	</outline>
	<note>
middot
</note>
</glyph>
<glyph name="circumflex" format="2">
	<unicode hex="02C6"/>
	<advance width="682"/>
	<outline>
		<contour>
			<point x="493" y="1375" type="line"/>
			<point x="497" y="1375" type="line"/>
			<point x="663" y="1183" type="line"/>
			<point x="813" y="1183" type="line"/>
			<point x="818" y="1211" type="line"/>
			<point x="630" y="1529" type="line"/>
			<point x="401" y="1529" type="line"/>
			<point x="81" y="1211" type="line"/>
			<point x="76" y="1183" type="line"/>
			<point x="245" y="1183" type="line"/>
		</contour>
	</outline>
	<note>
circumflex
</note>
</glyph>
<glyph name="macron" format="2">
	<unicode hex="02C9"/>
	<advance width="682"/>
	<outline>
		<contour>
			<point x="790" y="1371" type="line"/>
			<point x="200" y="1371" type="line"/>
			<point x="167" y="1203" type="line"/>
			<point x="753" y="1203" type="line"/>
		</contour>
	</outline>
	<note>
macron
</note>
</glyph>
<glyph name="uni02CC" format="2">
	<unicode hex="02CC"/>
	<advance width="682"/>
	<outline>
		<contour>
			<point x="335" y="-66" type="line"/>
			<point x="187" y="-66" type="line"/>
			<point x="187" y="-425" type="line"/>
			<point x="335" y="-425" type="line"/>
		</contour>
	</outline>
	<note>
uni02CC
</note>
</glyph>
<glyph name="uni02CD" format="2">
	<unicode hex="02CD"/>
	<advance width="682"/>
	<outline>
		<contour>
			<point x="521" y="-159" type="line"/>
			<point x="-91" y="-159" type="line"/>
			<point x="-124" y="-327" type="line"/>
			<point x="488" y="-327" type="line"/>
		</contour>
	</outline>
	<note>
uni02CD
</note>
</glyph>
<glyph name="uni02E6" format="2">
	<unicode hex="02E6"/>
	<advance width="784"/>
	<outline>
		<contour>
			<point x="634" y="1484" type="line"/>
			<point x="455" y="1484" type="line"/>
			<point x="455" y="1147" type="line"/>
			<point x="150" y="1147" type="line"/>
			<point x="150" y="976" type="line"/>
			<point x="455" y="976" type="line"/>
			<point x="455" y="0" type="line"/>
			<point x="634" y="0" type="line"/>
		</contour>
	</outline>
	<note>
uni02E6
</note>
</glyph>
<glyph name="uni02EB" format="2">
	<unicode hex="02EB"/>
	<advance width="682"/>
	<outline>
		<contour>
			<point x="215" y="383" type="line"/>
			<point x="585" y="383" type="line"/>
			<point x="585" y="497" type="line"/>
			<point x="215" y="497" type="line"/>
			<point x="215" y="880" type="line"/>
			<point x="98" y="880" type="line"/>
			<point x="98" y="0" type="line"/>
			<point x="215" y="0" type="line"/>
		</contour>
	</outline>
	<note>
uni02EB
</note>
</glyph>
<glyph name="uni02F9" format="2">
	<unicode hex="02F9"/>
	<advance width="682"/>
	<outline>
		<contour>
			<point x="435" y="1371" type="line"/>
			<point x="668" y="1371" type="line"/>
			<point x="668" y="1484" type="line"/>
			<point x="319" y="1484" type="line"/>
			<point x="319" y="1152" type="line"/>
			<point x="435" y="1152" type="line"/>
		</contour>
	</outline>
	<note>
uni02F9
</note>
</glyph>
<glyph name="uni02FB" format="2">
	<unicode hex="02FB"/>
	<advance width="682"/>
	<outline>
		<contour>
			<point x="438" y="-294" type="line"/>
			<point x="205" y="-294" type="line"/>
			<point x="205" y="-75" type="line"/>
			<point x="89" y="-75" type="line"/>
			<point x="89" y="-407" type="line"/>
			<point x="438" y="-407" type="line"/>
		</contour>
	</outline>
	<note>
uni02FB
</note>
</glyph>
<glyph name="uni02FE" format="2">
	<unicode hex="02FE"/>
	<advance width="814"/>
	<outline>
		<contour>
			<point x="664" y="-266" type="line"/>
			<point x="72" y="-266" type="line"/>
			<point x="72" y="-44" type="line"/>
			<point x="-90" y="-44" type="line"/>
			<point x="-90" y="-425" type="line"/>
			<point x="664" y="-425" type="line"/>
		</contour>
	</outline>
	<note>
uni02FE
</note>
</glyph>
<glyph name="uni02FF" format="2">
	<unicode hex="02FF"/>
	<advance width="682"/>
	<outline>
		<contour>
			<point x="76" y="-186" type="line"/>
			<point x="495" y="-186" type="line"/>
			<point x="495" y="-84" type="line"/>
			<point x="76" y="-84" type="line"/>
			<point x="242" y="155" type="line"/>
			<point x="125" y="155" type="line"/>
			<point x="-72" y="-128" type="line"/>
			<point x="-72" y="-142" type="line"/>
			<point x="125" y="-425" type="line"/>
			<point x="242" y="-425" type="line"/>
		</contour>
	</outline>
	<note>
uni02FF
</note>
</glyph>
<glyph name="uni0349" format="2">
	<unicode hex="0349"/>
	<outline>
		<contour>
			<point x="71" y="-75" type="line"/>
			<point x="-278" y="-75" type="line"/>
			<point x="-278" y="-188" type="line"/>
			<point x="-45" y="-188" type="line"/>
			<point x="-45" y="-407" type="line"/>
			<point x="71" y="-407" type="line"/>
		</contour>
	</outline>
	<note>
uni0349
</note>
</glyph>
<glyph name="uni0374" format="2">
	<unicode hex="0374"/>
	<advance width="682"/>
	<outline>
		<contour>
			<point x="725" y="1446" type="line"/>
			<point x="732" y="1484" type="line"/>
			<point x="474" y="1484" type="line"/>
			<point x="305" y="1229" type="line"/>
			<point x="300" y="1202" type="line"/>
			<point x="449" y="1202" type="line"/>
		</contour>
	</outline>
	<note>
uni0374
</note>
</glyph>
<glyph name="dalet" format="2">
	<unicode hex="05D3"/>
	<advance width="1192"/>
	<outline>
		<contour>
			<point x="1075" y="999" type="line"/>
			<point x="1229" y="999" type="line"/>
			<point x="1276" y="1241" type="line"/>
			<point x="180" y="1241" type="line"/>
			<point x="133" y="999" type="line"/>
			<point x="805" y="999" type="line"/>
			<point x="610" y="0" type="line"/>
			<point x="881" y="0" type="line"/>
		</contour>
	</outline>
	<note>
dalet
</note>
</glyph>
<glyph name="vav" format="2">
	<unicode hex="05D5"/>
	<advance width="618"/>
	<outline>
		<contour>
			<point x="584" y="1241" type="line"/>
			<point x="313" y="1241" type="line"/>
			<point x="72" y="0" type="line"/>
			<point x="342" y="0" type="line"/>
		</contour>
	</outline>
	<note>
vav
</note>
</glyph>
<glyph name="uni1D09" format="2">
	<unicode hex="1D09"/>
	<advance width="569"/>
	<outline>
		<contour>
			<point x="526" y="1083" type="line"/>
			<point x="246" y="1083" type="line"/>
			<point x="35" y="1" type="line"/>
			<point x="316" y="1" type="line"/>
		</contour>
		<contour>
			<point x="279" y="-194" type="line"/>
			<point x="-2" y="-194" type="line"/>
			<point x="-43" y="-401" type="line"/>
			<point x="238" y="-401" type="line"/>
		</contour>
	</outline>
	<note>
uni1D09
</note>
</glyph>
<glyph name="uni1FFD" format="2">
	<unicode hex="1FFD"/>
	<advance width="682"/>
	<outline>
		<contour>
			<point x="665" y="1471" type="line"/>
			<point x="672" y="1508" type="line"/>
			<point x="415" y="1508" type="line"/>
			<point x="289" y="1216" type="line"/>
			<point x="283" y="1183" type="line"/>
			<point x="388" y="1183" type="line"/>
		</contour>
	</outline>
	<note>
uni1FFD
</note>
</glyph>
<glyph name="endash" format="2">
	<unicode hex="2013"/>
	<advance width="1139"/>
	<outline>
		<contour>
			<point x="1090" y="651" type="line"/>
			<point x="76" y="651" type="line"/>
			<point x="44" y="448" type="line"/>
			<point x="1058" y="448" type="line"/>
		</contour>
	</outline>
	<note>
endash
</note>
</glyph>
<glyph name="emdash" format="2">
	<unicode hex="2014"/>
	<advance width="2048"/>
	<outline>
		<contour>
			<point x="2067" y="651" type="line"/>
			<point x="19" y="651" type="line"/>
			<point x="-19" y="448" type="line"/>
			<point x="2028" y="448" type="line"/>
		</contour>
	</outline>
	<note>
emdash
</note>
</glyph>
<glyph name="uni2015" format="2">
	<unicode hex="2015"/>
	<advance width="2048"/>
	<outline>
		<contour>
			<point x="2067" y="651" type="line"/>
			<point x="19" y="651" type="line"/>
			<point x="-19" y="448" type="line"/>
			<point x="2028" y="448" type="line"/>
		</contour>
	</outline>
	<note>
uni2015
</note>
</glyph>
<glyph name="primereversed" format="2">
	<unicode hex="2035"/>
	<advance width="491"/>
	<outline>
		<contour>
			<point x="529" y="1409" type="line"/>
			<point x="223" y="1409" type="line"/>
			<point x="279" y="890" type="line"/>
			<point x="491" y="890" type="line"/>
		</contour>
	</outline>
	<note>
primereversed
</note>
</glyph>
<glyph name="radicalex" format="2">
	<unicode hex="203E"/>
	<advance width="682"/>
	<outline>
		<contour>
			<point x="699" y="1620" type="line"/>
			<point x="-17" y="1620" type="line"/>
			<point x="-17" y="1454" type="line"/>
			<point x="699" y="1454" type="line"/>
		</contour>
	</outline>
	<note>
radicalex
</note>
</glyph>
<glyph name="periodcentered" format="2">
	<unicode hex="2219"/>
	<advance width="569"/>
	<outline>
		<contour>
			<point x="473" y="836" type="line"/>
			<point x="185" y="836" type="line"/>
			<point x="126" y="531" type="line"/>
			<point x="414" y="531" type="line"/>
		</contour>
	</outline>
	<note>
periodcentered
</note>
</glyph>
<glyph name="uni2500" format="2">
	<unicode hex="2500"/>
	<advance width="1451"/>
	<outline>
		<contour>
			<point x="1461" y="694" type="line"/>
			<point x="-10" y="694" type="line"/>
			<point x="-10" y="549" type="line"/>
			<point x="1461" y="549" type="line"/>
		</contour>
	</outline>
	<note>
uni2500
</note>
</glyph>
<glyph name="uni2552" format="2">
	<unicode hex="2552"/>
	<advance width="1451"/>
	<outline>
		<contour>
			<point x="798" y="369" type="line"/>
			<point x="1461" y="369" type="line"/>
			<point x="1461" y="514" type="line"/>
			<point x="798" y="514" type="line"/>
			<point x="798" y="729" type="line"/>
			<point x="1461" y="729" type="line"/>
			<point x="1461" y="874" type="line"/>
			<point x="653" y="874" type="line"/>
			<point x="653" y="-621" type="line"/>
			<point x="798" y="-621" type="line"/>
		</contour>
	</outline>
	<note>
uni2552
</note>
</glyph>
<glyph name="dnblock" format="2">
	<unicode hex="2584"/>
	<advance width="1451"/>
	<outline>
		<contour>
			<point x="1451" y="621" type="line"/>
			<point x="0" y="621" type="line"/>
			<point x="0" y="-621" type="line"/>
			<point x="1451" y="-621" type="line"/>
		</contour>
	</outline>
	<note>
dnblock
</note>
</glyph>
<glyph name="rtblock" format="2">
	<unicode hex="2590"/>
	<advance width="1451"/>
	<outline>
		<contour>
			<point x="1451" y="1864" type="line"/>
			<point x="725" y="1864" type="line"/>
			<point x="725" y="-621" type="line"/>
			<point x="1451" y="-621" type="line"/>
		</contour>
	</outline>
	<note>
rtblock
</note>
</glyph>
<glyph name="triagrt" format="2">
	<unicode hex="25BA"/>
	<advance width="2027"/>
	<outline>
		<contour>
			<point x="1626" y="586" type="line"/>
			<point x="401" y="1196" type="line"/>
			<point x="401" y="-27" type="line"/>
		</contour>
	</outline>
	<note>
triagrt
</note>
</glyph>
<glyph name="uni2E20" format="2">
	<unicode hex="2E20"/>
	<advance width="1128"/>
	<outline>
		<contour>
			<point x="579" y="434" type="line"/>
			<point x="853" y="434" type="line"/>
			<point x="853" y="623" type="line"/>
			<point x="579" y="623" type="line"/>
			<point x="579" y="1553" type="line"/>
			<point x="340" y="1553" type="line"/>
			<point x="340" y="-497" type="line"/>
			<point x="579" y="-497" type="line"/>
		</contour>
	</outline>
	<note>
uni2E20
</note>
</glyph>
<glyph name="uni2E22" format="2">
	<unicode hex="2E22"/>
	<advance width="674"/>
	<outline>
		<contour>
			<point x="380" y="1219" type="line"/>
			<point x="630" y="1219" type="line"/>
			<point x="630" y="1409" type="line"/>
			<point x="150" y="1409" type="line"/>
			<point x="150" y="499" type="line"/>
			<point x="380" y="499" type="line"/>
		</contour>
	</outline>
	<note>
uni2E22
</note>
</glyph>
<glyph name="uni2E25" format="2">
	<unicode hex="2E25"/>
	<advance width="674"/>
	<outline>
		<contour>
			<point x="524" y="530" type="line"/>
			<point x="294" y="530" type="line"/>
			<point x="294" y="-190" type="line"/>
			<point x="44" y="-190" type="line"/>
			<point x="44" y="-380" type="line"/>
			<point x="524" y="-380" type="line"/>
		</contour>
	</outline>
	<note>
uni2E25
</note>
</glyph>
<glyph name="uni2E3A" format="2">
	<unicode hex="2E3A"/>
	<advance width="3926"/>
	<outline>
		<contour>
			<point x="3844" y="653" type="line"/>
			<point x="82" y="653" type="line"/>
			<point x="82" y="409" type="line"/>
			<point x="3844" y="409" type="line"/>
		</contour>
	</outline>
	<note>
uni2E3A
</note>
</glyph>
<glyph name="uniA780" format="2">
	<unicode hex="A780"/>
	<advance width="1161"/>
	<outline>
		<contour>
			<point x="1202" y="1409" type="line"/>
			<point x="218" y="1409" type="line"/>
			<point x="173" y="1181" type="line"/>
			<point x="862" y="1181" type="line"/>
			<point x="629" y="1" type="line"/>
			<point x="924" y="1" type="line"/>
		</contour>
	</outline>
	<note>
uniA780
</note>
</glyph>
<glyph name="uni0441.loclSRB" format="2">
	<advance width="1821"/>
	<outline>
		<contour>
			<point x="1638" y="1371" type="line"/>
			<point x="476" y="1371" type="line"/>
			<point x="443" y="1203" type="line"/>
			<point x="1601" y="1203" type="line"/>
		</contour>
		<contour>
			<point x="1334" y="185" type="curve"/>
			<point x="1337" y="185" type="line"/>
			<point x="1332.519016613" y="165.5824053231"/>
			<point x="1309" y="18.1540863715"/>
			<point x="1309" y="0" type="curve"/>
			<point x="1581" y="0" type="line"/>
			<point x="1590.5768860544" y="59.3766935376"/>
			<point x="1601" y="136"/>
			<point x="1620" y="231" type="curve" smooth="yes"/>
			<point x="1786" y="1082" type="line"/>
			<point x="1504" y="1082" type="line"/>
			<point x="1386" y="478" type="line" smooth="yes"/>
			<point x="1350" y="295"/>
			<point x="1251" y="190"/>
			<point x="1134" y="190" type="curve" smooth="yes"/>
			<point x="1050" y="190"/>
			<point x="1008" y="230"/>
			<point x="1008" y="311" type="curve" smooth="yes"/>
			<point x="1008" y="334"/>
			<point x="1011.9429458396" y="373.0100264244"/>
			<point x="1025" y="447" type="curve"/>
			<point x="1148" y="1082" type="line"/>
			<point x="869" y="1082" type="line"/>
			<point x="750" y="475" type="line"/>
			<point x="714" y="298"/>
			<point x="619" y="190"/>
			<point x="499" y="190" type="curve" smooth="yes"/>
			<point x="417" y="190"/>
			<point x="375" y="230"/>
			<point x="373" y="311" type="curve" smooth="yes"/>
			<point x="373" y="339.6491484557"/>
			<point x="378.675528657" y="393.377643285"/>
			<point x="391" y="455" type="curve" smooth="yes"/>
			<point x="513" y="1082" type="line"/>
			<point x="234" y="1082" type="line"/>
			<point x="106" y="429" type="line" smooth="yes"/>
			<point x="95" y="378"/>
			<point x="85" y="313"/>
			<point x="85" y="265" type="curve" smooth="yes"/>
			<point x="85" y="81"/>
			<point x="186" y="-19"/>
			<point x="370" y="-19" type="curve" smooth="yes"/>
			<point x="514" y="-19"/>
			<point x="616" y="45"/>
			<point x="724" y="213" type="curve"/>
			<point x="743" y="62"/>
			<point x="841" y="-19"/>
			<point x="1006" y="-19" type="curve" smooth="yes"/>
			<point x="1141" y="-19"/>
			<point x="1230" y="26"/>
		</contour>
	</outline>
	<note>
uni0441.loclSRB
</note>
</glyph>
